<?xml version="1.0" encoding="UTF-8" standalone="no"?>
<!-- Created with Inkscape (http://www.inkscape.org/) -->

<svg
   width="64.103104mm"
   height="64.103073mm"
   viewBox="0 0 64.103104 64.103072"
   version="1.1"
   id="svg5"
   inkscape:export-filename="drag.png"
   inkscape:export-xdpi="96"
   inkscape:export-ydpi="96"
   inkscape:version="1.2.2 (b0a84865, 2022-12-01)"
   sodipodi:docname="refresh.svg"
   xmlns:inkscape="http://www.inkscape.org/namespaces/inkscape"
   xmlns:sodipodi="http://sodipodi.sourceforge.net/DTD/sodipodi-0.dtd"
   xmlns="http://www.w3.org/2000/svg"
   xmlns:svg="http://www.w3.org/2000/svg">
  <sodipodi:namedview
     id="namedview7"
     pagecolor="#ffffff"
     bordercolor="#000000"
     borderopacity="0.25"
     inkscape:showpageshadow="2"
     inkscape:pageopacity="0.0"
     inkscape:pagecheckerboard="0"
     inkscape:deskcolor="#d1d1d1"
     inkscape:document-units="mm"
     showgrid="false"
     showguides="true"
     inkscape:zoom="1.1369883"
     inkscape:cx="176.78282"
     inkscape:cy="109.06005"
     inkscape:window-width="1309"
     inkscape:window-height="706"
     inkscape:window-x="0"
     inkscape:window-y="25"
     inkscape:window-maximized="0"
     inkscape:current-layer="layer1" />
  <defs
     id="defs2" />
  <g
     inkscape:label="Layer 1"
     inkscape:groupmode="layer"
     id="layer1"
     transform="translate(-78.395772,-89.722045)">
    <path
       id="path462"
       style="fill:#ffffff;stroke-width:0;stroke-linecap:square;stroke-linejoin:bevel;paint-order:markers fill stroke"
       d="m 109.50685,89.722043 v 6.179445 A 25.907193,25.907184 0 0 0 84.540124,121.7738 25.907193,25.907184 0 0 0 94.868578,142.45242 l -0.06057,-0.0606 5.756322,-5.75589 A 17.865637,17.865629 0 0 1 92.581672,121.77339 17.865637,17.865629 0 0 1 109.50685,103.9514 v 5.27012 l 9.74995,-9.749945 z m 16.43898,11.292507 0.14077,0.14076 -5.74421,5.74379 a 17.865637,17.865629 0 0 1 7.97054,14.87428 17.865637,17.865629 0 0 1 -16.92517,17.83952 v -5.28724 l -9.74994,9.74952 9.74994,9.74994 v -6.17945 a 25.907193,25.907184 0 0 0 24.96673,-25.87187 25.907193,25.907184 0 0 0 -10.40866,-20.75925 z" />
  </g>
</svg>
