<?xml version="1.0" encoding="UTF-8" standalone="no"?>
<!-- Created with Inkscape (http://www.inkscape.org/) -->

<svg
   width="64.103104mm"
   height="64.103073mm"
   viewBox="0 0 64.103104 64.103072"
   version="1.1"
   id="svg5"
   inkscape:export-filename="drag.png"
   inkscape:export-xdpi="96"
   inkscape:export-ydpi="96"
   inkscape:version="1.2.2 (b0a84865, 2022-12-01)"
   sodipodi:docname="settings.svg"
   xmlns:inkscape="http://www.inkscape.org/namespaces/inkscape"
   xmlns:sodipodi="http://sodipodi.sourceforge.net/DTD/sodipodi-0.dtd"
   xmlns="http://www.w3.org/2000/svg"
   xmlns:svg="http://www.w3.org/2000/svg">
  <sodipodi:namedview
     id="namedview7"
     pagecolor="#ffffff"
     bordercolor="#000000"
     borderopacity="0.25"
     inkscape:showpageshadow="2"
     inkscape:pageopacity="0.0"
     inkscape:pagecheckerboard="0"
     inkscape:deskcolor="#d1d1d1"
     inkscape:document-units="mm"
     showgrid="false"
     showguides="true"
     inkscape:zoom="4.6681316"
     inkscape:cx="90.507302"
     inkscape:cy="76.475993"
     inkscape:window-width="1680"
     inkscape:window-height="1050"
     inkscape:window-x="0"
     inkscape:window-y="0"
     inkscape:window-maximized="0"
     inkscape:current-layer="layer1" />
  <defs
     id="defs2" />
  <g
     inkscape:label="Layer 1"
     inkscape:groupmode="layer"
     id="layer1"
     transform="translate(-78.395772,-89.722045)">
    <path
       id="path602"
       style="fill:#ffffff;stroke-width:0;stroke-linecap:square;stroke-linejoin:bevel;paint-order:markers fill stroke"
       inkscape:transform-center-x="-8.4499443e-06"
       d="m 101.5354,89.908334 -14.227719,8.21415 a 10.290515,10.290515 0 0 1 0,4.71e-4 10.290515,10.290515 0 0 1 1.37846,5.144955 10.290515,10.290515 0 0 1 -10.290369,10.29036 v 16.42877 a 10.290515,10.290515 0 0 1 10.290369,10.29084 10.290515,10.290515 0 0 1 -1.37846,5.14497 v 4.5e-4 l 14.227259,8.21415 a 10.290515,10.290515 0 0 1 8.91237,-5.14541 10.290515,10.290515 0 0 1 8.91007,5.14679 l 14.22959,-8.21553 a 10.290515,10.290515 0 0 1 -1.37894,-5.14542 10.290515,10.290515 0 0 1 10.29085,-10.29084 v -16.42877 a 10.290515,10.290515 0 0 1 -10.29085,-10.29036 10.290515,10.290515 0 0 1 1.37894,-5.145426 l -14.22775,-8.21415 a 10.290515,10.290515 0 0 1 -8.91191,5.144955 10.290515,10.290515 0 0 1 -8.91191,-5.144955 z m 8.91191,16.595946 a 15.268283,15.268283 0 0 1 15.26817,15.26861 15.268283,15.268283 0 0 1 -15.26817,15.26814 15.268283,15.268283 0 0 1 -15.268599,-15.26814 15.268283,15.268283 0 0 1 15.268599,-15.26861 z" />
  </g>
</svg>
